Coordinates
version=1
nRows=9
nColumns=36
inDegrees=yes

Units are S.I. units (second, meters, Newtons, ...)
If the header above contains a line with 'inDegrees', this indicates whether rotational values are in degrees (yes) or radians (no).

endheader
time	pelvis_tilt	pelvis_list	pelvis_rotation	pelvis_tx	pelvis_ty	pelvis_tz	hip_flexion_r	hip_adduction_r	hip_rotation_r	knee_angle_r	knee_angle_r_beta	ankle_angle_r	subtalar_angle_r	mtp_angle_r	hip_flexion_l	hip_adduction_l	hip_rotation_l	knee_angle_l	knee_angle_l_beta	ankle_angle_l	subtalar_angle_l	mtp_angle_l	lumbar_extension	lumbar_bending	lumbar_rotation	arm_flex_r	arm_add_r	arm_rot_r	elbow_flex_r	pro_sup_r	arm_flex_l	arm_add_l	arm_rot_l	elbow_flex_l	pro_sup_l
      1.11000000	     -9.62361411	      1.16332671	      5.93940968	      1.12353380	      0.89593335	     -0.18323352	     39.85810854	      1.31087402	      6.09912107	     24.79371006	      0.43273187	      5.80872060	      0.13875808	     -7.19557452	      1.55307571	      5.59579767	     10.53631061	     11.31059667	      0.19740715	     13.32396026	     -6.58653832	     -7.19557452	     -9.95601741	    -21.64328986	    -13.37714559	     -5.01440110	    -18.74519439	     16.08854206	     45.14718229	    104.18666290	      3.55155149	    -17.45616410	     -4.07571828	     46.26352626	    103.20984720
      1.12000000	    -10.02212444	      1.36501656	      6.22537725	      1.13313732	      0.89421718	     -0.18373967	     40.16000852	      0.88702418	      5.89751778	     22.33001408	      0.38973227	      6.28480322	      0.20869132	     -7.19795719	      1.09883861	      5.73191932	     10.44116486	     10.94829625	      0.19108382	     13.34321461	     -6.21060912	     -7.19795719	     -9.68773930	    -21.63233387	    -13.45445615	     -4.88162115	    -18.78457143	     15.84330977	     45.15612571	    104.15277049	      3.22393983	    -17.44909714	     -3.93153087	     46.14564702	    103.22993226
      1.13000000	    -10.19258814	      1.48153798	      6.53299711	      1.14293481	      0.89282038	     -0.18426836	     40.05613500	      0.57924508	      5.77173621	     19.82536791	      0.34601795	      6.82026321	      0.00909258	     -7.20181763	      0.37543319	      5.71897645	     10.35104907	     10.54120851	      0.18397880	     13.44324623	     -5.46237466	     -7.20181763	     -9.69233553	    -21.45258205	    -13.54691128	     -4.63744614	    -18.77015417	     15.37629091	     45.03549182	    104.08041450	      2.93988469	    -17.44127041	     -3.69619350	     45.91758927	    103.25277216
      1.14000000	    -10.38737821	      1.59543057	      6.85028697	      1.15291344	      0.89126039	     -0.18482939	     39.99579094	      0.25505681	      5.42117544	     17.61566926	      0.30745143	      7.27741947	     -0.49673833	     -7.20623218	     -0.28695871	      5.70842771	     10.22635702	     10.23082377	      0.17856156	     13.61243469	     -4.62740866	     -7.20623218	     -9.65642179	    -21.24146700	    -13.59541508	     -4.48606044	    -18.75468512	     14.84976337	     44.90793630	    104.00290046	      2.66772802	    -17.40698830	     -3.41874371	     45.59180822	    103.26527150
      1.15000000	    -10.56132038	      1.67579719	      7.16421296	      1.16309468	      0.88960859	     -0.18535042	     39.89338385	     -0.00516078	      5.03221760	     15.67440583	      0.27356999	      7.47320109	     -1.55258166	     -7.21594943	     -0.92680655	      5.62843947	      9.92425191	     10.00696301	      0.17465445	     14.03505947	     -3.38610097	     -7.21594943	     -9.58776307	    -20.95160498	    -13.45806147	     -4.45311135	    -18.70531321	     14.00602826	     44.81971657	    103.89629466	      2.55058331	    -17.38147245	     -2.87401724	     45.08198507	    103.27530693
      1.16000000	    -10.91671471	      1.77449063	      7.53499319	      1.17340540	      0.88755729	     -0.18600846	     40.07982147	     -0.37323916	      4.37241987	     14.29861553	      0.24955792	      7.97029188	     -2.06757806	     -7.21861711	     -1.30917080	      5.64970303	     10.00510566	      9.92982780	      0.17330819	     13.95319758	     -3.01267063	     -7.21861711	     -9.28910882	    -20.68330751	    -13.47510542	     -4.36779903	    -18.74939355	     13.68484554	     44.75741793	    103.86159954	      2.17073471	    -17.31215121	     -2.66976069	     44.75748622	    103.25848020
      1.17000000	    -11.19155846	      1.89958902	      7.88697596	      1.18397126	      0.88555452	     -0.18664076	     40.18489585	     -0.72145221	      3.63915769	     13.31595060	      0.23240718	      8.40732194	     -2.67439091	     -7.22045914	     -1.79155624	      5.69078797	     10.10834345	      9.85746266	      0.17204518	     13.89234589	     -2.73130961	     -7.22045914	     -9.08792749	    -20.40331574	    -13.47504059	     -4.26654342	    -18.77845162	     13.37725816	     44.60984598	    103.82339305	      1.80273263	    -17.24519191	     -2.48442935	     44.40542352	    103.23365138
      1.18000000	    -11.32685096	      1.89972165	      8.31252754	      1.19484381	      0.88376571	     -0.18740016	     40.11307807	     -0.95134850	      2.86859536	     12.75040348	      0.22253652	      8.76210463	     -3.62206608	     -7.22345185	     -2.39023175	      5.56449110	     10.44826434	      9.86128897	      0.17211196	     13.77261618	     -2.29594148	     -7.22345185	     -9.04122487	    -19.88769037	    -13.54839850	     -4.08127612	    -18.74771904	     12.86573797	     44.30753545	    103.75692814	      1.46179293	    -17.15605672	     -2.14923235	     43.81832742	    103.18242641
      1.19000000	    -11.48863973	      1.97708575	      8.68279202	      1.20601310	      0.88187472	     -0.18810652	     40.10399940	     -1.20506864	      2.19341214	     12.66470283	      0.22104076	      8.98914974	     -4.55087987	     -7.22601437	     -2.95218014	      5.52035903	     10.62541427	      9.90819402	      0.17293061	     13.65279382	     -2.00535189	     -7.22601437	     -8.88167387	    -19.45937276	    -13.48153650	     -3.98878417	    -18.76221685	     12.45449458	     44.07701460	    103.70690644	      1.09956098	    -17.06726752	     -1.86194061	     43.29060736	    103.12493860
